<svg width="16" height="16" viewBox="0 0 16 16" fill="none" xmlns="http://www.w3.org/2000/svg">
  <path d="M15.2132 13.4454L9.90986 8.14214L15.2132 2.83883C15.7013 2.35068 15.7013 1.55922 15.2132 1.07107C14.725 0.582915 13.9335 0.582915 13.4454 1.07107L8.14209 6.37437L2.83879 1.07107C2.35064 0.582915 1.55917 0.582915 1.07102 1.07107C0.58287 1.55922 0.58287 2.35068 1.07102 2.83883L6.37432 8.14214L1.07102 13.4454C0.58287 13.9336 0.58287 14.7251 1.07102 15.2132C1.55917 15.7014 2.35064 15.7014 2.83879 15.2132L8.14209 9.9099L13.4454 15.2132C13.9335 15.7014 14.725 15.7014 15.2132 15.2132C15.7013 14.7251 15.7013 13.9336 15.2132 13.4454Z" fill="#FF9902"/>
</svg>
